<?xml version="1.0" encoding="UTF-8"?>
<!DOCTYPE svg PUBLIC "-//W3C//DTD SVG 1.1//EN" "http://www.w3.org/Graphics/SVG/1.1/DTD/svg11.dtd">
<!-- Creator: CorelDRAW X8 -->
<svg xmlns="http://www.w3.org/2000/svg" xml:space="preserve" width="0.835811in" height="0.835811in" version="1.1" style="shape-rendering:geometricPrecision; text-rendering:geometricPrecision; image-rendering:optimizeQuality; fill-rule:evenodd; clip-rule:evenodd"
viewBox="0 0 969 969"
 xmlns:xlink="http://www.w3.org/1999/xlink">
 <defs>
  <style type="text/css">
   <![CDATA[
    .fil0 {fill:#FEFEFE}
   ]]>
  </style>
 </defs>
 <g id="Layer_x0020_1">
  <metadata id="CorelCorpID_0Corel-Layer"/>
  <path class="fil0" d="M170 29l315 315 314 -315c39,-39 102,-39 141,0l0 0c39,39 39,102 0,141l-314 315 314 314c39,39 39,102 0,141l0 0c-39,39 -102,39 -141,0l-314 -314 -315 314c-39,39 -102,39 -141,0l0 0c-39,-39 -39,-102 0,-141l315 -314 -315 -315c-39,-39 -39,-102 0,-141l0 0c39,-39 102,-39 141,0z"/>
 </g>
</svg>
