<?xml version="1.0" encoding="UTF-8"?>
<!DOCTYPE svg PUBLIC "-//W3C//DTD SVG 1.1//EN" "http://www.w3.org/Graphics/SVG/1.1/DTD/svg11.dtd">
<!-- Creator: CorelDRAW X8 -->
<svg xmlns="http://www.w3.org/2000/svg" xml:space="preserve" width="0.198969in" height="0.210303in" version="1.1" style="shape-rendering:geometricPrecision; text-rendering:geometricPrecision; image-rendering:optimizeQuality; fill-rule:evenodd; clip-rule:evenodd"
viewBox="0 0 7234 7646"
 xmlns:xlink="http://www.w3.org/1999/xlink">
 <defs>
  <style type="text/css">
   <![CDATA[
    .fil0 {fill:#FEFEFE;fill-rule:nonzero}
   ]]>
  </style>
 </defs>
 <g id="Layer_x0020_1">
  <metadata id="CorelCorpID_0Corel-Layer"/>
  <path class="fil0" d="M994 5277c575,575 1188,894 1841,956 703,69 1337,-177 1902,-741 590,-589 815,-1324 681,-2212 -121,-805 -486,-1514 -1091,-2121 -1242,-1244 -2438,-1295 -3584,-151 -565,564 -806,1283 -729,2161 76,825 402,1528 980,2108zm6184 1385l-1259 -1824c429,-472 618,-1088 566,-1849 -58,-785 -362,-1455 -911,-2005 -529,-530 -1031,-843 -1503,-940 -274,-63 -849,-58 -1722,14 821,30 1526,341 2115,932 629,630 1016,1354 1161,2172 159,920 -62,1681 -667,2285 -90,89 -196,195 -322,321l1211 1624c543,712 1649,-246 1331,-730zm-6028 -1581c-524,-524 -815,-1163 -877,-1916 -68,-796 155,-1449 671,-1963 1034,-1033 2113,-986 3236,140 553,553 883,1198 990,1934 121,805 -84,1473 -615,2004 -514,513 -1091,739 -1728,678 -594,-58 -1152,-350 -1677,-877zm182 -58c757,759 1630,949 2622,572 -915,-57 -1643,-359 -2185,-902 -527,-528 -800,-1134 -816,-1812 -16,-681 229,-1290 738,-1834 -225,93 -428,230 -614,416 -465,463 -659,1065 -577,1805 78,692 356,1278 832,1755zm712 -1064c299,300 726,436 1277,407 -317,-249 -534,-430 -653,-548 -204,-205 -345,-484 -423,-841 -27,-137 -67,-458 -117,-966 -258,280 -399,603 -428,975 -28,393 86,716 344,973zm2650 -656c95,-193 60,-465 -102,-811 -129,-286 -290,-524 -483,-718 -237,-237 -485,-365 -746,-382 346,599 789,1237 1331,1911z"/>
 </g>
</svg>
